# xmcd
#
# Track frame offsets: 
#        150
#        18133
#        32202
#        46826
#        63607
#        78608
#        92462
#        108988
#        123818
#        138391
#        154747
#
# Disc length: 2308 seconds
#
# Revision: 0
# Processed by: cddbd v1.4PL0 Copyright (c) Steve Scherf et al.
# Submitted via: ExactAudioCopy v0.90b4
#
DISCID=8309020b
DTITLE=Karim Albert Kook - Barbes City Limit Blues
DYEAR=2002
DGENRE=Blues
TTITLE0=Barbes City Limit Blues
TTITLE1=On s'habitue a Tout
TTITLE2=La Charmeuse de Serpents
TTITLE3=C'est le Moment
TTITLE4=Esprit du Grand Large
TTITLE5=Sur La Route Du Groove
TTITLE6=Eldorado
TTITLE7=Un Monde Sans Pitie
TTITLE8=Un Autre Voyage
TTITLE9=Ocean "Paris-Alger"
TTITLE10=Barbes City Limit Blues (Oriental Mix)
EXTD=
EXTT0=
EXTT1=
EXTT2=
EXTT3=
EXTT4=
EXTT5=
EXTT6=
EXTT7=
EXTT8=
EXTT9=
EXTT10=
PLAYORDER=
